<svg xmlns="http://www.w3.org/2000/svg" width="1200" height="1500" viewBox="0 0 1200 1500">
<defs>
<linearGradient id="bg" x1="0" x2="1" y1="0" y2="1"><stop offset="0" stop-color="#070707"/><stop offset=".55" stop-color="#111827"/><stop offset="1" stop-color="#211609"/></linearGradient>
<linearGradient id="gold" x1="0" x2="1"><stop offset="0" stop-color="#b3863e"/><stop offset="1" stop-color="#f3d48a"/></linearGradient>
</defs>
<rect width="1200" height="1500" fill="url(#bg)"/>
<text x="860" y="225" font-size="170" fill="#d8b56a" opacity=".11" font-weight="900">A</text>
<circle cx="990" cy="190" r="210" fill="none" stroke="#d8b56a" stroke-opacity=".16" stroke-width="2"/>
<text x="82" y="110" font-size="26" fill="#d8b56a" font-weight="900" letter-spacing="5">AIM STUDY RESULT</text>
<text x="82" y="195" font-size="66" fill="#ffffff" font-weight="900">2024학년도 합격 실적</text>
<text x="82" y="260" font-size="42" fill="#f3d48a" font-weight="900">🏆</text>
<line x1="140" y1="247" x2="1118" y2="247" stroke="url(#gold)" stroke-width="3"/>
<rect x="82" y="330" width="1036" height="455" rx="28" fill="rgba(255,255,255,.07)" stroke="#d8b56a" stroke-opacity=".48"/>
<text x="130" y="398" font-size="40" fill="#f3d48a" font-weight="900">영재학교</text><text x="130" y="465" font-size="26" fill="#f7f1e6" font-weight="700">세종과학예술영재학교 6명</text>
<text x="130" y="507" font-size="26" fill="#f7f1e6" font-weight="700">해밀중 남**</text>
<text x="130" y="549" font-size="26" fill="#f7f1e6" font-weight="700">보람중 이**</text>
<text x="130" y="591" font-size="26" fill="#f7f1e6" font-weight="700">다정중 박**</text>
<text x="130" y="633" font-size="26" fill="#f7f1e6" font-weight="700">세종중 송**</text>
<text x="130" y="675" font-size="26" fill="#f7f1e6" font-weight="700">종촌중 이**</text>
<text x="130" y="717" font-size="26" fill="#f7f1e6" font-weight="700">보람중 이**</text>
<rect x="82" y="850" width="1036" height="455" rx="28" fill="rgba(255,255,255,.07)" stroke="#d8b56a" stroke-opacity=".48"/>
<text x="130" y="918" font-size="40" fill="#f3d48a" font-weight="900">과학고</text><text x="130" y="985" font-size="26" fill="#f7f1e6" font-weight="700">과학고 합격 10명</text>
<text x="130" y="1027" font-size="26" fill="#f7f1e6" font-weight="700">충북과고 2명</text>
<text x="130" y="1069" font-size="26" fill="#f7f1e6" font-weight="700">동신과고 1명</text>
<text x="130" y="1111" font-size="26" fill="#f7f1e6" font-weight="700">대구일과고 3명</text>
<text x="130" y="1153" font-size="26" fill="#f7f1e6" font-weight="700">강원과고 1명</text>
<text x="130" y="1195" font-size="26" fill="#f7f1e6" font-weight="700">전남과고 2명</text>
<text x="130" y="1237" font-size="26" fill="#f7f1e6" font-weight="700">충남과고 1명</text>
<text x="82" y="1415" font-size="30" fill="#d8b56a" font-weight="900">에임스터디학원</text>
<text x="82" y="1454" font-size="22" fill="#d1d5db">세종 영재학교 · 과학고 · 자사고 입시 전문</text>
</svg>